# xmcd CD database file
#
# Track frame offsets:
#	150
#	14116
#	33190
#	51892
#	71320
#	90295
#	105790
#	122191
#	146563
#	164377
#	182188
#	199165
#	214993
#	234349
#	252403
#	271066
#	284953
#	301450
#	317602
#	335323
#
# Disc length: 4656 seconds
#
# Revision: 0
# Processed by: cddbd v1.5.1PL0 Copyright (c) Steve Scherf et al.
# Submitted via: CDex 1.51
#
DISCID=22122e14
DTITLE=Various Artist - Salsa
DYEAR=1900
DGENRE=Salsa
TTITLE0=Ran Kan Kan
TTITLE1=Indestructible
TTITLE2=No Me Cambie Camino
TTITLE3=Bamboleo
TTITLE4=Quitate Tu
TTITLE5=A Benny More
TTITLE6=Arrecotin Arrecotan
TTITLE7=Chan Chan
TTITLE8=La Bamba
TTITLE9=El Malecon
TTITLE10=Congo Bongo
TTITLE11=Tiene Sabor
TTITLE12=Richie's Jala Jala
TTITLE13=Bang Bang
TTITLE14=Ximomara
TTITLE15=Enamoure
TTITLE16=Non Je Ne Regretta Rien
TTITLE17=Pa Bravo Yo
TTITLE18=Sin Clave Y Bongo
TTITLE19=El Montunero
EXTD=
EXTT0=
EXTT1=
EXTT2=
EXTT3=
EXTT4=
EXTT5=
EXTT6=
EXTT7=
EXTT8=
EXTT9=
EXTT10=
EXTT11=
EXTT12=
EXTT13=
EXTT14=
EXTT15=
EXTT16=
EXTT17=
EXTT18=
EXTT19=
PLAYORDER=
